<?xml version="1.0" encoding="UTF-8"?>
<svg xmlns="http://www.w3.org/2000/svg" style="display: none;">
  
  <!-- Home Icon -->
  <symbol id="icon-home" viewBox="0 0 24 24">
    <path d="M10 20v-6h4v6h5v-8h3L12 3 2 12h3v8z" fill="currentColor"/>
  </symbol>

  <!-- Tasks Icon -->
    <!-- Tasks Icon - Checklist -->
  <symbol id="icon-tasks" viewBox="0 0 24 24">
    <rect x="3" y="3" width="18" height="18" rx="2" stroke="currentColor" stroke-width="2" fill="none"/>
    <path d="M7 9l3 3 6-6" stroke="currentColor" stroke-width="2.5" fill="none" stroke-linecap="round" stroke-linejoin="round"/>
    <line x1="7" y1="15" x2="17" y2="15" stroke="currentColor" stroke-width="2" stroke-linecap="round"/>
  </symbol>

  <!-- Focus/Timer Icon -->
  <symbol id="icon-focus" viewBox="0 0 24 24">
    <circle cx="12" cy="12" r="9" stroke="currentColor" stroke-width="2" fill="none"/>
    <path d="M12 7v5h3.5" stroke="currentColor" stroke-width="2" fill="none" stroke-linecap="round"/>
  </symbol>

  <!-- Events Icon -->
  <symbol id="icon-events" viewBox="0 0 24 24">
    <rect x="3" y="4" width="18" height="18" rx="2" stroke="currentColor" stroke-width="2" fill="none"/>
    <path d="M16 2v4M8 2v4M3 10h18" stroke="currentColor" stroke-width="2" fill="none"/>
    <circle cx="8" cy="15" r="1.5" fill="currentColor"/>
    <circle cx="12" cy="15" r="1.5" fill="currentColor"/>
    <circle cx="16" cy="15" r="1.5" fill="currentColor"/>
  </symbol>

  <!-- Subjects Icon -->
  <symbol id="icon-subjects" viewBox="0 0 24 24">
    <path d="M5 3h14c1.1 0 2 .9 2 2v14c0 1.1-.9 2-2 2H5c-1.1 0-2-.9-2-2V5c0-1.1.9-2 2-2z" stroke="currentColor" stroke-width="2" fill="none"/>
    <path d="M7 7h10M7 11h10M7 15h6" stroke="currentColor" stroke-width="1.5" fill="none" stroke-linecap="round"/>
  </symbol>

  <!-- More/Menu Icon -->
  <symbol id="icon-more" viewBox="0 0 24 24">
    <circle cx="12" cy="5" r="2" fill="currentColor"/>
    <circle cx="12" cy="12" r="2" fill="currentColor"/>
    <circle cx="12" cy="19" r="2" fill="currentColor"/>
  </symbol>

  <!-- Settings Icon -->
  <symbol id="icon-settings" viewBox="0 0 24 24">
    <circle cx="12" cy="12" r="3" stroke="currentColor" stroke-width="2" fill="none"/>
    <path d="M12 1v6M12 17v6M4.22 4.22l4.24 4.24M15.54 15.54l4.24 4.24M1 12h6M17 12h6M4.22 19.78l4.24-4.24M15.54 8.46l4.24-4.24" stroke="currentColor" stroke-width="2" fill="none" stroke-linecap="round"/>
  </symbol>

  <!-- Trash Icon -->
  <symbol id="icon-trash" viewBox="0 0 24 24">
    <path d="M6 19c0 1.1.9 2 2 2h8c1.1 0 2-.9 2-2V7H6v12zM19 4h-3.5l-1-1h-9l-1 1H5v2h14V4z" fill="currentColor"/>
  </symbol>

  <!-- Empty State Icon -->
  <symbol id="icon-empty" viewBox="0 0 24 24">
    <path d="M12 2C6.48 2 2 6.48 2 12s4.48 10 10 10 10-4.48 10-10S17.52 2 12 2zm0 18c-4.41 0-8-3.59-8-8s3.59-8 8-8 8 3.59 8 8-3.59 8-8 8zm3.5-9c.83 0 1.5-.67 1.5-1.5S16.33 8 15.5 8 14 8.67 14 9.5s.67 1.5 1.5 1.5zm-7 0c.83 0 1.5-.67 1.5-1.5S9.33 8 8.5 8 7 8.67 7 9.5 7.67 11 8.5 11zm3.5 6.5c2.33 0 4.31-1.46 5.11-3.5H6.89c.8 2.04 2.78 3.5 5.11 3.5z" fill="currentColor"/>
  </symbol>

  <!-- Checkmark Icon -->
  <symbol id="icon-check" viewBox="0 0 24 24">
    س
  </symbol>

  <!-- Add Icon -->
  <symbol id="icon-add" viewBox="0 0 24 24">
    <path d="M19 13h-6v6h-2v-6H5v-2h6V5h2v6h6v2z" fill="currentColor"/>
  </symbol>

  <!-- Delete Icon -->
  <symbol id="icon-delete" viewBox="0 0 24 24">
    <path d="M6 19c0 1.1.9 2 2 2h8c1.1 0 2-.9 2-2V7H6v12zM19 4h-3.5l-1-1h-9l-1 1H5v2h14V4z" fill="currentColor"/>
  </symbol>

  <!-- Edit Icon -->
  <symbol id="icon-edit" viewBox="0 0 24 24">
    <path d="M3 17.25V21h3.75L17.81 9.94l-3.75-3.75L3 17.25z" fill="currentColor"/>
    <path d="M20.71 7.04c.39-.39.39-1.02 0-1.41l-2.34-2.34c-.39-.39-1.02-.39-1.41 0l-1.83 1.83 3.75 3.75 1.83-1.83z" fill="currentColor"/>
  </symbol>

  <!-- Restore Icon -->
  <symbol id="icon-restore" viewBox="0 0 24 24">
    <path d="M12 5V1L7 6l5 5V7c3.31 0 6 2.69 6 6 0 1.01-.25 1.97-.7 2.8l1.46 1.46C19.54 15.03 20 13.57 20 12c0-4.42-3.58-8-8-8zm0 14c-3.31 0-6-2.69-6-6 0-1.01.25-1.97.7-2.8L5.24 7.74C4.46 8.97 4 10.43 4 12c0 4.42 3.58 8 8 8v4l5-5-5-5v4z" fill="currentColor"/>
  </symbol>

  <!-- Bell/Notification Icon -->
  <symbol id="icon-notification" viewBox="0 0 24 24">
    <path d="M12 22c1.1 0 2-.9 2-2h-4c0 1.1.89 2 2 2zm6-6v-5c0-3.07-1.64-5.64-4.5-6.32V4c0-.83-.67-1.5-1.5-1.5s-1.5.67-1.5 1.5v.68C7.64 5.36 6 7.92 6 11v5l-2 2v1h16v-1l-2-2z" fill="currentColor"/>
  </symbol>

  <!-- Theme/Sun Icon -->
  <symbol id="icon-sun" viewBox="0 0 24 24">
    <circle cx="12" cy="12" r="5" stroke="currentColor" stroke-width="2" fill="none"/>
    <path d="M12 1v6M12 17v6M23 12h-6M7 12H1M20.485 3.515l-4.242 4.243M7.757 16.485l-4.243 4.242M20.485 20.485l-4.242-4.243M7.757 7.757l-4.243-4.242" stroke="currentColor" stroke-width="2" fill="none" stroke-linecap="round"/>
  </symbol>

  <!-- Theme/Moon Icon -->
  <symbol id="icon-moon" viewBox="0 0 24 24">
    <path d="M21 12.79A9 9 0 1 1 11.21 3 7 7 0 0 0 21 12.79z" stroke="currentColor" stroke-width="2" fill="none"/>
  </symbol>

  <!-- WhatsApp Icon -->
  <symbol id="icon-whatsapp" viewBox="0 0 24 24">
    <path d="M17.472 14.382c-.297-.149-1.758-.867-2.03-.967-.272-.099-.471-.148-.67.15-.197.297-.767.966-.94 1.164-.173.199-.347.223-.644.075-.297-.15-1.255-.463-2.39-1.475-.883-.788-1.48-1.761-1.653-2.059-.173-.297-.018-.458.13-.606.134-.133.298-.347.446-.52.149-.174.198-.298.298-.497.099-.198.05-.371-.025-.52-.075-.149-.669-1.612-.916-2.207-.242-.579-.487-.5-.67-.51-.173-.008-.371-.01-.57-.01-.198 0-.52.074-.792.372-.272.297-1.04 1.016-1.04 2.479 0 1.462 1.065 2.875 1.213 3.074.149.198 2.096 3.2 5.076 4.487.709.306 1.262.489 1.694.625.712.227 1.36.195 1.871.118.571-.085 1.758-.719 2.006-1.413.248-.694.248-1.289.173-1.413-.074-.124-.272-.198-.57-.347m-5.421-7.403h-.004c-1.769 0-3.44.659-4.694 1.856-.76.76-1.236 1.738-1.236 2.759 0 2.265 1.657 4.145 3.982 4.495l.5.064c.404.06.814.093 1.229.093 2.269 0 4.394-.868 5.995-2.469 1.601-1.601 2.469-3.726 2.469-5.995 0-1.021-.476-1.999-1.236-2.759-1.254-1.197-2.925-1.856-4.694-1.856" fill="currentColor"/>
  </symbol>

  <!-- Info Icon -->
  <symbol id="icon-info" viewBox="0 0 24 24">
    <circle cx="12" cy="12" r="10" stroke="currentColor" stroke-width="2" fill="none"/>
    <path d="M12 16v-4M12 8h.01" stroke="currentColor" stroke-width="2" fill="none" stroke-linecap="round"/>
  </symbol>

  <!-- Download/Export Icon -->
  <symbol id="icon-download" viewBox="0 0 24 24">
    <path d="M19 9h-4V3H9v6H5l7 7 7-7zM5 18v2h14v-2H5z" fill="currentColor"/>
  </symbol>

  <!-- Share Icon -->
  <symbol id="icon-share" viewBox="0 0 24 24">
    <circle cx="18" cy="5" r="3" stroke="currentColor" stroke-width="2" fill="none"/>
    <circle cx="6" cy="12" r="3" stroke="currentColor" stroke-width="2" fill="none"/>
    <circle cx="18" cy="19" r="3" stroke="currentColor" stroke-width="2" fill="none"/>
    <path d="M8.59 13.51l6.83 3.98M15.41 6.51l-6.83 3.98" stroke="currentColor" stroke-width="2" fill="none"/>
  </symbol>

  <!-- Loading/Spinner Icon -->
  <symbol id="icon-loading" viewBox="0 0 24 24">
    <circle cx="12" cy="12" r="10" stroke="currentColor" stroke-width="2" fill="none" stroke-dasharray="6 6" opacity="0.3"/>
    <circle cx="12" cy="12" r="10" stroke="currentColor" stroke-width="2" fill="none" stroke-dasharray="6 6" stroke-dashoffset="9" style="animation: spin 1s linear infinite;"/>
  </symbol>

</svg>